<svg xmlns="http://www.w3.org/2000/svg" viewBox="0 22.93000030517578 120.19999694824219 26.81999969482422" data-asc="0.987" width="120.19999694824219" height="26.81999969482422"><defs/><g fill="#0066ff"><g transform="translate(0, 0)"><path d="M19.15 49.35Q18.05 49.35 17.49 49.05Q16.93 48.75 16.55 47.80L16 46.38Q15.03 47.20 14.13 47.83Q13.23 48.45 12.26 48.89Q11.30 49.33 10.21 49.54Q9.13 49.75 7.80 49.75Q6.03 49.75 4.58 49.29Q3.13 48.83 2.11 47.93Q1.10 47.02 0.55 45.69Q0 44.35 0 42.60Q0 41.23 0.70 39.77Q1.40 38.33 3.13 37.14Q4.85 35.95 7.78 35.15Q10.70 34.35 15.15 34.25L15.15 33.15Q15.15 30.88 14.21 29.86Q13.28 28.85 11.55 28.85Q10.18 28.85 9.30 29.15Q8.43 29.45 7.74 29.82Q7.05 30.20 6.40 30.50Q5.75 30.80 4.85 30.80Q4.05 30.80 3.49 30.41Q2.92 30.02 2.60 29.45L1.20 27.02Q3.55 24.95 6.41 23.94Q9.28 22.93 12.55 22.93Q14.90 22.93 16.79 23.69Q18.68 24.45 19.99 25.81Q21.30 27.18 22 29.05Q22.70 30.93 22.70 33.15L22.70 49.35L19.15 49.35M10.25 44.63Q11.75 44.63 12.88 44.10Q14 43.58 15.15 42.40L15.15 38.80Q12.83 38.90 11.33 39.20Q9.83 39.50 8.95 39.95Q8.08 40.40 7.74 40.98Q7.40 41.55 7.40 42.23Q7.40 43.55 8.13 44.09Q8.85 44.63 10.25 44.63ZM46.90 29.57Q46.55 30 46.23 30.25Q45.90 30.50 45.30 30.50Q44.73 30.50 44.26 30.23Q43.80 29.95 43.23 29.61Q42.65 29.27 41.88 29Q41.10 28.73 39.95 28.73Q38.53 28.73 37.49 29.25Q36.45 29.77 35.78 30.75Q35.10 31.73 34.78 33.14Q34.45 34.55 34.45 36.33Q34.45 40.05 35.89 42.05Q37.33 44.05 39.85 44.05Q41.20 44.05 41.99 43.71Q42.78 43.38 43.33 42.96Q43.88 42.55 44.34 42.20Q44.80 41.85 45.50 41.85Q46.43 41.85 46.90 42.52L49.15 45.30Q47.95 46.68 46.63 47.54Q45.30 48.40 43.91 48.89Q42.53 49.38 41.13 49.56Q39.73 49.75 38.40 49.75Q36.03 49.75 33.86 48.85Q31.70 47.95 30.06 46.24Q28.43 44.52 27.46 42.02Q26.50 39.52 26.50 36.33Q26.50 33.52 27.34 31.09Q28.18 28.65 29.81 26.86Q31.45 25.07 33.86 24.05Q36.28 23.02 39.45 23.02Q42.50 23.02 44.80 24Q47.10 24.98 48.95 26.85L46.90 29.57ZM71.20 29.57Q70.85 30 70.53 30.25Q70.20 30.50 69.60 30.50Q69.03 30.50 68.56 30.23Q68.10 29.95 67.53 29.61Q66.95 29.27 66.17 29Q65.40 28.73 64.25 28.73Q62.83 28.73 61.79 29.25Q60.75 29.77 60.08 30.75Q59.40 31.73 59.08 33.14Q58.75 34.55 58.75 36.33Q58.75 40.05 60.19 42.05Q61.63 44.05 64.15 44.05Q65.50 44.05 66.29 43.71Q67.08 43.38 67.63 42.96Q68.17 42.55 68.64 42.20Q69.10 41.85 69.80 41.85Q70.72 41.85 71.20 42.52L73.45 45.30Q72.25 46.68 70.92 47.54Q69.60 48.40 68.21 48.89Q66.83 49.38 65.42 49.56Q64.03 49.75 62.70 49.75Q60.33 49.75 58.16 48.85Q56 47.95 54.36 46.24Q52.73 44.52 51.76 42.02Q50.80 39.52 50.80 36.33Q50.80 33.52 51.64 31.09Q52.48 28.65 54.11 26.86Q55.75 25.07 58.16 24.05Q60.58 23.02 63.75 23.02Q66.80 23.02 69.10 24Q71.40 24.98 73.25 26.85L71.20 29.57ZM76.80 49.35L76.80 23.43L81.40 23.43Q81.97 23.43 82.36 23.52Q82.75 23.63 83.01 23.84Q83.27 24.05 83.41 24.40Q83.55 24.75 83.65 25.25L84.08 27.68Q85.50 25.48 87.28 24.20Q89.05 22.93 91.15 22.93Q92.92 22.93 94 23.77L93 29.48Q92.90 30 92.60 30.21Q92.30 30.43 91.80 30.43Q91.38 30.43 90.80 30.31Q90.22 30.20 89.35 30.20Q86.30 30.20 84.55 33.45L84.55 49.35L76.80 49.35ZM108.55 23.02Q111.13 23.02 113.26 23.82Q115.40 24.63 116.94 26.15Q118.48 27.68 119.34 29.89Q120.20 32.10 120.20 34.90Q120.20 35.77 120.13 36.33Q120.05 36.88 119.85 37.20Q119.65 37.52 119.31 37.65Q118.98 37.77 118.45 37.77L103.50 37.77Q103.88 41.02 105.48 42.49Q107.08 43.95 109.60 43.95Q110.95 43.95 111.93 43.63Q112.90 43.30 113.66 42.90Q114.43 42.50 115.06 42.17Q115.70 41.85 116.40 41.85Q117.33 41.85 117.80 42.52L120.05 45.30Q118.85 46.68 117.46 47.54Q116.08 48.40 114.61 48.89Q113.15 49.38 111.69 49.56Q110.23 49.75 108.90 49.75Q106.18 49.75 103.79 48.86Q101.40 47.98 99.61 46.23Q97.83 44.48 96.79 41.88Q95.75 39.27 95.75 35.83Q95.75 33.23 96.64 30.90Q97.53 28.57 99.19 26.82Q100.85 25.07 103.21 24.05Q105.58 23.02 108.55 23.02M108.70 28.38Q106.48 28.38 105.23 29.64Q103.98 30.90 103.58 33.28L113.25 33.28Q113.25 32.35 113.01 31.48Q112.78 30.60 112.24 29.91Q111.70 29.23 110.83 28.80Q109.95 28.38 108.70 28.38Z"/></g></g></svg>